<?xml version="1.0" encoding="UTF-8"?>
<svg width="200" height="60" viewBox="0 0 200 60" fill="none" xmlns="http://www.w3.org/2000/svg">
  <!-- Phone icon -->
  <rect x="15" y="10" width="30" height="50" rx="5" fill="#4A87E8" />
  <rect x="20" y="17" width="20" height="30" rx="2" fill="white" />
  <circle cx="30" cy="52" r="3" fill="white" />
  
  <!-- Text -->
  <path d="M55 22H65V25H59V30H64V33H59V42H55V22Z" fill="#333333" />
  <path d="M66 22H78.5C80.5 22 81.5 23 81.5 25V27C81.5 28.5 80.5 29.5 79 29.5C80.5 29.5 81.5 30.5 81.5 32V34C81.5 36 80.5 37 78.5 37H66V34H77.5C78 34 78.5 33.5 78.5 33V31C78.5 30.5 78 30 77.5 30H74.5V27H77.5C78 27 78.5 26.5 78.5 26V24C78.5 23.5 78 23 77.5 23H66V22Z" fill="#333333" />
  <path d="M84 22H95.5C97.5 22 98.5 23 98.5 25V34C98.5 36 97.5 37 95.5 37H84V22ZM94.5 25H87V34H94.5C95 34 95.5 33.5 95.5 33V26C95.5 25.5 95 25 94.5 25Z" fill="#333333" />
  <path d="M100 22H104V34H112V37H100V22Z" fill="#333333" />
  
  <!-- Mobile -->
  <path d="M117 42H121V27H117V24H130V27H126V42H130V45H117V42Z" fill="#4A87E8" />
  <path d="M131 42H142.5C144.5 42 145.5 41 145.5 39V30C145.5 28 144.5 27 142.5 27H131V24H143.5C146.5 24 148.5 26 148.5 29V40C148.5 43 146.5 45 143.5 45H131V42Z" fill="#4A87E8" />
  <path d="M150 24H154V36H162V24H166V45H162V39H154V45H150V24Z" fill="#4A87E8" />
  <path d="M170 24H174V42H182V45H170V24Z" fill="#4A87E8" />
  <path d="M183 24H197V27H194V45H190V27H183V24Z" fill="#4A87E8" />
</svg>
